<svg id="Layer_1" data-name="Layer 1" xmlns="http://www.w3.org/2000/svg" width="1500" height="1000" viewBox="0 0 1500 1000">
  <title>Lines</title>
  <rect x="-750" width="3000" height="1000" style="fill: none;stroke: #ee1c4e;stroke-miterlimit: 10"/>
  <g id="group11">
    <line x1="-262.32" y1="1028.16" x2="1460.32" y2="-23.36" style="fill: none;stroke: #8f459a;stroke-miterlimit: 10;stroke-width: 10px"/>
    <line x1="-130.01" y1="1028.72" x2="1460.32" y2="-23.36" style="fill: none;stroke: #8f459a;stroke-miterlimit: 10;stroke-width: 10px"/>
    <line x1="2.29" y1="1029.28" x2="1460.32" y2="-23.36" style="fill: none;stroke: #8f459a;stroke-miterlimit: 10;stroke-width: 10px"/>
    <line x1="134.6" y1="1029.85" x2="1460.32" y2="-23.36" style="fill: none;stroke: #8f459a;stroke-miterlimit: 10;stroke-width: 10px"/>
    <line x1="266.91" y1="1030.41" x2="1460.32" y2="-23.36" style="fill: none;stroke: #8f459a;stroke-miterlimit: 10;stroke-width: 10px"/>
  </g>
  <g id="group10">
    <line x1="-28.11" y1="1073.2" x2="1460.32" y2="-23.36" style="fill: none;stroke: #fdee17;stroke-miterlimit: 10;stroke-width: 7px"/>
    <line x1="71.73" y1="1069.44" x2="1460.32" y2="-23.36" style="fill: none;stroke: #fdee17;stroke-miterlimit: 10;stroke-width: 7px"/>
    <line x1="171.57" y1="1065.69" x2="1460.32" y2="-23.36" style="fill: none;stroke: #fdee17;stroke-miterlimit: 10;stroke-width: 7px"/>
    <line x1="271.41" y1="1061.94" x2="1460.32" y2="-23.36" style="fill: none;stroke: #fdee17;stroke-miterlimit: 10;stroke-width: 7px"/>
    <line x1="371.25" y1="1058.18" x2="1460.32" y2="-23.36" style="fill: none;stroke: #fdee17;stroke-miterlimit: 10;stroke-width: 7px"/>
    <line x1="471.09" y1="1054.43" x2="1460.32" y2="-23.36" style="fill: none;stroke: #fdee17;stroke-miterlimit: 10;stroke-width: 7px"/>
    <line x1="570.93" y1="1050.68" x2="1460.32" y2="-23.36" style="fill: none;stroke: #fdee17;stroke-miterlimit: 10;stroke-width: 7px"/>
  </g>
  <g id="group16">
    <line x1="-799.25" y1="1074.59" x2="1460.32" y2="-23.36" style="fill: none;stroke: #4376bb;stroke-miterlimit: 10;stroke-width: 5px"/>
    <line x1="-99.87" y1="1085.05" x2="1460.32" y2="-23.36" style="fill: none;stroke: #4376bb;stroke-miterlimit: 10;stroke-width: 5px"/>
    <line x1="599.51" y1="1095.52" x2="1460.32" y2="-23.36" style="fill: none;stroke: #4376bb;stroke-miterlimit: 10;stroke-width: 5px"/>
    <line x1="1298.89" y1="1105.99" x2="1460.32" y2="-23.36" style="fill: none;stroke: #4376bb;stroke-miterlimit: 10;stroke-width: 5px"/>
    <line x1="1998.28" y1="1116.45" x2="1460.32" y2="-23.36" style="fill: none;stroke: #4376bb;stroke-miterlimit: 10;stroke-width: 5px"/>
  </g>
  <g id="group5">
    <line x1="480.3" y1="1107.67" x2="1460.32" y2="-23.36" style="fill: none;stroke: #ee3324;stroke-miterlimit: 10;stroke-width: 4px"/>
    <line x1="504.71" y1="1107.67" x2="1460.32" y2="-23.36" style="fill: none;stroke: #ee3324;stroke-miterlimit: 10;stroke-width: 4px"/>
    <line x1="529.12" y1="1107.67" x2="1460.32" y2="-23.36" style="fill: none;stroke: #ee3324;stroke-miterlimit: 10;stroke-width: 4px"/>
    <line x1="553.54" y1="1107.67" x2="1460.32" y2="-23.36" style="fill: none;stroke: #ee3324;stroke-miterlimit: 10;stroke-width: 4px"/>
    <line x1="577.95" y1="1107.67" x2="1460.32" y2="-23.36" style="fill: none;stroke: #ee3324;stroke-miterlimit: 10;stroke-width: 4px"/>
    <line x1="602.37" y1="1107.67" x2="1460.32" y2="-23.36" style="fill: none;stroke: #ee3324;stroke-miterlimit: 10;stroke-width: 4px"/>
    <line x1="626.78" y1="1107.67" x2="1460.32" y2="-23.36" style="fill: none;stroke: #ee3324;stroke-miterlimit: 10;stroke-width: 4px"/>
    <line x1="651.19" y1="1107.67" x2="1460.32" y2="-23.36" style="fill: none;stroke: #ee3324;stroke-miterlimit: 10;stroke-width: 4px"/>
    <line x1="675.61" y1="1107.67" x2="1460.32" y2="-23.36" style="fill: none;stroke: #ee3324;stroke-miterlimit: 10;stroke-width: 4px"/>
    <line x1="700.02" y1="1107.67" x2="1460.32" y2="-23.36" style="fill: none;stroke: #ee3324;stroke-miterlimit: 10;stroke-width: 4px"/>
    <line x1="724.43" y1="1107.67" x2="1460.32" y2="-23.36" style="fill: none;stroke: #ee3324;stroke-miterlimit: 10;stroke-width: 4px"/>
    <line x1="748.85" y1="1107.67" x2="1460.32" y2="-23.36" style="fill: none;stroke: #ee3324;stroke-miterlimit: 10;stroke-width: 4px"/>
    <line x1="773.26" y1="1107.67" x2="1460.32" y2="-23.36" style="fill: none;stroke: #ee3324;stroke-miterlimit: 10;stroke-width: 4px"/>
    <line x1="797.68" y1="1107.67" x2="1460.32" y2="-23.36" style="fill: none;stroke: #ee3324;stroke-miterlimit: 10;stroke-width: 4px"/>
    <line x1="822.09" y1="1107.67" x2="1460.32" y2="-23.36" style="fill: none;stroke: #ee3324;stroke-miterlimit: 10;stroke-width: 4px"/>
    <line x1="846.5" y1="1107.67" x2="1460.32" y2="-23.36" style="fill: none;stroke: #ee3324;stroke-miterlimit: 10;stroke-width: 4px"/>
  </g>
  <g id="group4">
    <line x1="-295.37" y1="1073.07" x2="1460.32" y2="-23.36" style="fill: none;stroke: #58b947;stroke-miterlimit: 10;stroke-width: 3px"/>
    <line x1="-269.23" y1="1077.49" x2="1460.32" y2="-23.36" style="fill: none;stroke: #58b947;stroke-miterlimit: 10;stroke-width: 3px"/>
    <line x1="-243.09" y1="1081.91" x2="1460.32" y2="-23.36" style="fill: none;stroke: #58b947;stroke-miterlimit: 10;stroke-width: 3px"/>
    <line x1="-216.94" y1="1086.33" x2="1460.32" y2="-23.36" style="fill: none;stroke: #58b947;stroke-miterlimit: 10;stroke-width: 3px"/>
    <line x1="-190.8" y1="1090.75" x2="1460.32" y2="-23.36" style="fill: none;stroke: #58b947;stroke-miterlimit: 10;stroke-width: 3px"/>
    <line x1="-164.65" y1="1095.17" x2="1460.32" y2="-23.36" style="fill: none;stroke: #58b947;stroke-miterlimit: 10;stroke-width: 3px"/>
    <line x1="-138.51" y1="1099.6" x2="1460.32" y2="-23.36" style="fill: none;stroke: #58b947;stroke-miterlimit: 10;stroke-width: 3px"/>
    <line x1="-112.37" y1="1104.02" x2="1460.32" y2="-23.36" style="fill: none;stroke: #58b947;stroke-miterlimit: 10;stroke-width: 3px"/>
    <line x1="-86.22" y1="1108.44" x2="1460.32" y2="-23.36" style="fill: none;stroke: #58b947;stroke-miterlimit: 10;stroke-width: 3px"/>
    <line x1="-60.08" y1="1112.86" x2="1460.32" y2="-23.36" style="fill: none;stroke: #58b947;stroke-miterlimit: 10;stroke-width: 3px"/>
    <line x1="-33.93" y1="1117.28" x2="1460.32" y2="-23.36" style="fill: none;stroke: #58b947;stroke-miterlimit: 10;stroke-width: 3px"/>
    <line x1="-7.79" y1="1121.7" x2="1460.32" y2="-23.36" style="fill: none;stroke: #58b947;stroke-miterlimit: 10;stroke-width: 3px"/>
    <line x1="18.35" y1="1126.12" x2="1460.32" y2="-23.36" style="fill: none;stroke: #58b947;stroke-miterlimit: 10;stroke-width: 3px"/>
    <line x1="44.5" y1="1130.55" x2="1460.32" y2="-23.36" style="fill: none;stroke: #58b947;stroke-miterlimit: 10;stroke-width: 3px"/>
    <line x1="70.64" y1="1134.97" x2="1460.32" y2="-23.36" style="fill: none;stroke: #58b947;stroke-miterlimit: 10;stroke-width: 3px"/>
    <line x1="96.79" y1="1139.39" x2="1460.32" y2="-23.36" style="fill: none;stroke: #58b947;stroke-miterlimit: 10;stroke-width: 3px"/>
  </g>
  <g id="group3">
    <line x1="840.74" y1="1208.59" x2="1460.32" y2="-23.36" style="fill: none;stroke: #3b57a7;stroke-miterlimit: 10;stroke-width: 2px"/>
    <line x1="773.37" y1="1208.33" x2="1460.32" y2="-23.36" style="fill: none;stroke: #3b57a7;stroke-miterlimit: 10;stroke-width: 2px"/>
    <line x1="706" y1="1208.07" x2="1460.32" y2="-23.36" style="fill: none;stroke: #3b57a7;stroke-miterlimit: 10;stroke-width: 2px"/>
    <line x1="638.63" y1="1207.81" x2="1460.32" y2="-23.36" style="fill: none;stroke: #3b57a7;stroke-miterlimit: 10;stroke-width: 2px"/>
    <line x1="571.26" y1="1207.54" x2="1460.32" y2="-23.36" style="fill: none;stroke: #3b57a7;stroke-miterlimit: 10;stroke-width: 2px"/>
    <line x1="503.89" y1="1207.28" x2="1460.32" y2="-23.36" style="fill: none;stroke: #3b57a7;stroke-miterlimit: 10;stroke-width: 2px"/>
    <line x1="436.52" y1="1207.02" x2="1460.32" y2="-23.36" style="fill: none;stroke: #3b57a7;stroke-miterlimit: 10;stroke-width: 2px"/>
    <line x1="369.15" y1="1206.76" x2="1460.32" y2="-23.36" style="fill: none;stroke: #3b57a7;stroke-miterlimit: 10;stroke-width: 2px"/>
    <line x1="301.78" y1="1206.5" x2="1460.32" y2="-23.36" style="fill: none;stroke: #3b57a7;stroke-miterlimit: 10;stroke-width: 2px"/>
    <line x1="234.41" y1="1206.23" x2="1460.32" y2="-23.36" style="fill: none;stroke: #3b57a7;stroke-miterlimit: 10;stroke-width: 2px"/>
    <line x1="167.04" y1="1205.97" x2="1460.32" y2="-23.36" style="fill: none;stroke: #3b57a7;stroke-miterlimit: 10;stroke-width: 2px"/>
    <line x1="99.67" y1="1205.71" x2="1460.32" y2="-23.36" style="fill: none;stroke: #3b57a7;stroke-miterlimit: 10;stroke-width: 2px"/>
  </g>
  <g id="group6">
    <line x1="-451.08" y1="1058.65" x2="1460.32" y2="-23.36" style="fill: none;stroke: #3b57a7;stroke-miterlimit: 10;stroke-width: 2px"/>
    <line x1="-303.83" y1="1060.19" x2="1460.32" y2="-23.36" style="fill: none;stroke: #3b57a7;stroke-miterlimit: 10;stroke-width: 2px"/>
    <line x1="-156.58" y1="1061.72" x2="1460.32" y2="-23.36" style="fill: none;stroke: #3b57a7;stroke-miterlimit: 10;stroke-width: 2px"/>
    <line x1="-9.33" y1="1063.26" x2="1460.32" y2="-23.36" style="fill: none;stroke: #3b57a7;stroke-miterlimit: 10;stroke-width: 2px"/>
    <line x1="137.92" y1="1064.8" x2="1460.32" y2="-23.36" style="fill: none;stroke: #3b57a7;stroke-miterlimit: 10;stroke-width: 2px"/>
    <line x1="285.18" y1="1066.34" x2="1460.32" y2="-23.36" style="fill: none;stroke: #3b57a7;stroke-miterlimit: 10;stroke-width: 2px"/>
    <line x1="432.43" y1="1067.88" x2="1460.32" y2="-23.36" style="fill: none;stroke: #3b57a7;stroke-miterlimit: 10;stroke-width: 2px"/>
    <line x1="579.68" y1="1069.41" x2="1460.32" y2="-23.36" style="fill: none;stroke: #3b57a7;stroke-miterlimit: 10;stroke-width: 2px"/>
    <line x1="726.93" y1="1070.95" x2="1460.32" y2="-23.36" style="fill: none;stroke: #3b57a7;stroke-miterlimit: 10;stroke-width: 2px"/>
    <line x1="874.19" y1="1072.49" x2="1460.32" y2="-23.36" style="fill: none;stroke: #3b57a7;stroke-miterlimit: 10;stroke-width: 2px"/>
    <line x1="1021.44" y1="1074.03" x2="1460.32" y2="-23.36" style="fill: none;stroke: #3b57a7;stroke-miterlimit: 10;stroke-width: 2px"/>
    <line x1="1168.69" y1="1075.57" x2="1460.32" y2="-23.36" style="fill: none;stroke: #3b57a7;stroke-miterlimit: 10;stroke-width: 2px"/>
    <line x1="1315.94" y1="1077.1" x2="1460.32" y2="-23.36" style="fill: none;stroke: #3b57a7;stroke-miterlimit: 10;stroke-width: 2px"/>
    <line x1="1463.19" y1="1078.64" x2="1460.32" y2="-23.36" style="fill: none;stroke: #3b57a7;stroke-miterlimit: 10;stroke-width: 2px"/>
    <line x1="1610.45" y1="1080.18" x2="1460.32" y2="-23.36" style="fill: none;stroke: #3b57a7;stroke-miterlimit: 10;stroke-width: 2px"/>
    <line x1="1757.7" y1="1081.72" x2="1460.32" y2="-23.36" style="fill: none;stroke: #3b57a7;stroke-miterlimit: 10;stroke-width: 2px"/>
  </g>
  <g id="group15">
    <line x1="1720.43" y1="1097.42" x2="1460.32" y2="-23.36" style="fill: none;stroke: #d2de26;stroke-miterlimit: 10;stroke-width: 2px"/>
    <line x1="1689.49" y1="1098.41" x2="1460.32" y2="-23.36" style="fill: none;stroke: #d2de26;stroke-miterlimit: 10;stroke-width: 2px"/>
    <line x1="1658.55" y1="1099.39" x2="1460.32" y2="-23.36" style="fill: none;stroke: #d2de26;stroke-miterlimit: 10;stroke-width: 2px"/>
    <line x1="1627.61" y1="1100.37" x2="1460.32" y2="-23.36" style="fill: none;stroke: #d2de26;stroke-miterlimit: 10;stroke-width: 2px"/>
    <line x1="1596.66" y1="1101.35" x2="1460.32" y2="-23.36" style="fill: none;stroke: #d2de26;stroke-miterlimit: 10;stroke-width: 2px"/>
    <line x1="1565.72" y1="1102.33" x2="1460.32" y2="-23.36" style="fill: none;stroke: #d2de26;stroke-miterlimit: 10;stroke-width: 2px"/>
    <line x1="1534.78" y1="1103.32" x2="1460.32" y2="-23.36" style="fill: none;stroke: #d2de26;stroke-miterlimit: 10;stroke-width: 2px"/>
    <line x1="1503.84" y1="1104.3" x2="1460.32" y2="-23.36" style="fill: none;stroke: #d2de26;stroke-miterlimit: 10;stroke-width: 2px"/>
    <line x1="1472.9" y1="1105.28" x2="1460.32" y2="-23.36" style="fill: none;stroke: #d2de26;stroke-miterlimit: 10;stroke-width: 2px"/>
    <line x1="1441.96" y1="1106.26" x2="1460.32" y2="-23.36" style="fill: none;stroke: #d2de26;stroke-miterlimit: 10;stroke-width: 2px"/>
    <line x1="1411.02" y1="1107.25" x2="1460.32" y2="-23.36" style="fill: none;stroke: #d2de26;stroke-miterlimit: 10;stroke-width: 2px"/>
    <line x1="1380.08" y1="1108.23" x2="1460.32" y2="-23.36" style="fill: none;stroke: #d2de26;stroke-miterlimit: 10;stroke-width: 2px"/>
    <line x1="1349.14" y1="1109.21" x2="1460.32" y2="-23.36" style="fill: none;stroke: #d2de26;stroke-miterlimit: 10;stroke-width: 2px"/>
    <line x1="1318.2" y1="1110.19" x2="1460.32" y2="-23.36" style="fill: none;stroke: #d2de26;stroke-miterlimit: 10;stroke-width: 2px"/>
    <line x1="1287.26" y1="1111.17" x2="1460.32" y2="-23.36" style="fill: none;stroke: #d2de26;stroke-miterlimit: 10;stroke-width: 2px"/>
    <line x1="1256.32" y1="1112.16" x2="1460.32" y2="-23.36" style="fill: none;stroke: #d2de26;stroke-miterlimit: 10;stroke-width: 2px"/>
    <line x1="1225.38" y1="1113.14" x2="1460.32" y2="-23.36" style="fill: none;stroke: #d2de26;stroke-miterlimit: 10;stroke-width: 2px"/>
    <line x1="1194.44" y1="1114.12" x2="1460.32" y2="-23.36" style="fill: none;stroke: #d2de26;stroke-miterlimit: 10;stroke-width: 2px"/>
    <line x1="1163.5" y1="1115.1" x2="1460.32" y2="-23.36" style="fill: none;stroke: #d2de26;stroke-miterlimit: 10;stroke-width: 2px"/>
    <line x1="1132.56" y1="1116.09" x2="1460.32" y2="-23.36" style="fill: none;stroke: #d2de26;stroke-miterlimit: 10;stroke-width: 2px"/>
    <line x1="1101.62" y1="1117.07" x2="1460.32" y2="-23.36" style="fill: none;stroke: #d2de26;stroke-miterlimit: 10;stroke-width: 2px"/>
    <line x1="1070.68" y1="1118.05" x2="1460.32" y2="-23.36" style="fill: none;stroke: #d2de26;stroke-miterlimit: 10;stroke-width: 2px"/>
    <line x1="1039.74" y1="1119.03" x2="1460.32" y2="-23.36" style="fill: none;stroke: #d2de26;stroke-miterlimit: 10;stroke-width: 2px"/>
    <line x1="1008.8" y1="1120.01" x2="1460.32" y2="-23.36" style="fill: none;stroke: #d2de26;stroke-miterlimit: 10;stroke-width: 2px"/>
    <line x1="977.86" y1="1121" x2="1460.32" y2="-23.36" style="fill: none;stroke: #d2de26;stroke-miterlimit: 10;stroke-width: 2px"/>
    <line x1="946.92" y1="1121.98" x2="1460.32" y2="-23.36" style="fill: none;stroke: #d2de26;stroke-miterlimit: 10;stroke-width: 2px"/>
    <line x1="915.98" y1="1122.96" x2="1460.32" y2="-23.36" style="fill: none;stroke: #d2de26;stroke-miterlimit: 10;stroke-width: 2px"/>
    <line x1="885.04" y1="1123.94" x2="1460.32" y2="-23.36" style="fill: none;stroke: #d2de26;stroke-miterlimit: 10;stroke-width: 2px"/>
    <line x1="854.1" y1="1124.93" x2="1460.32" y2="-23.36" style="fill: none;stroke: #d2de26;stroke-miterlimit: 10;stroke-width: 2px"/>
    <line x1="823.16" y1="1125.91" x2="1460.32" y2="-23.36" style="fill: none;stroke: #d2de26;stroke-miterlimit: 10;stroke-width: 2px"/>
    <line x1="792.21" y1="1126.89" x2="1460.32" y2="-23.36" style="fill: none;stroke: #d2de26;stroke-miterlimit: 10;stroke-width: 2px"/>
    <line x1="761.27" y1="1127.87" x2="1460.32" y2="-23.36" style="fill: none;stroke: #d2de26;stroke-miterlimit: 10;stroke-width: 2px"/>
  </g>
  <g id="group9">
    <line x1="-982" y1="725.3" x2="1460.32" y2="-23.36" style="fill: none;stroke: #4757a6;stroke-miterlimit: 10;stroke-width: 2px"/>
    <line x1="-969.53" y1="761.5" x2="1460.32" y2="-23.36" style="fill: none;stroke: #4757a6;stroke-miterlimit: 10;stroke-width: 2px"/>
    <line x1="-957.06" y1="797.7" x2="1460.32" y2="-23.36" style="fill: none;stroke: #4757a6;stroke-miterlimit: 10;stroke-width: 2px"/>
    <line x1="-944.59" y1="833.9" x2="1460.32" y2="-23.36" style="fill: none;stroke: #4757a6;stroke-miterlimit: 10;stroke-width: 2px"/>
    <line x1="-932.12" y1="870.1" x2="1460.32" y2="-23.36" style="fill: none;stroke: #4757a6;stroke-miterlimit: 10;stroke-width: 2px"/>
    <line x1="-919.66" y1="906.3" x2="1460.32" y2="-23.36" style="fill: none;stroke: #4757a6;stroke-miterlimit: 10;stroke-width: 2px"/>
    <line x1="-907.19" y1="942.5" x2="1460.32" y2="-23.36" style="fill: none;stroke: #4757a6;stroke-miterlimit: 10;stroke-width: 2px"/>
    <line x1="-894.72" y1="978.7" x2="1460.32" y2="-23.36" style="fill: none;stroke: #4757a6;stroke-miterlimit: 10;stroke-width: 2px"/>
    <line x1="-882.25" y1="1014.9" x2="1460.32" y2="-23.36" style="fill: none;stroke: #4757a6;stroke-miterlimit: 10;stroke-width: 2px"/>
    <line x1="-869.78" y1="1051.1" x2="1460.32" y2="-23.36" style="fill: none;stroke: #4757a6;stroke-miterlimit: 10;stroke-width: 2px"/>
    <line x1="-857.31" y1="1087.3" x2="1460.32" y2="-23.36" style="fill: none;stroke: #4757a6;stroke-miterlimit: 10;stroke-width: 2px"/>
    <line x1="-844.84" y1="1123.5" x2="1460.32" y2="-23.36" style="fill: none;stroke: #4757a6;stroke-miterlimit: 10;stroke-width: 2px"/>
  </g>
  <g id="group2">
    <line x1="-347.28" y1="1150.92" x2="1460.32" y2="-23.36" style="fill: none;stroke: #ea2c24;stroke-miterlimit: 10"/>
    <line x1="-299.04" y1="1153.54" x2="1460.32" y2="-23.36" style="fill: none;stroke: #ea2c24;stroke-miterlimit: 10"/>
    <line x1="-250.81" y1="1156.16" x2="1460.32" y2="-23.36" style="fill: none;stroke: #ea2c24;stroke-miterlimit: 10"/>
    <line x1="-202.58" y1="1158.79" x2="1460.32" y2="-23.36" style="fill: none;stroke: #ea2c24;stroke-miterlimit: 10"/>
    <line x1="-154.34" y1="1161.41" x2="1460.32" y2="-23.36" style="fill: none;stroke: #ea2c24;stroke-miterlimit: 10"/>
    <line x1="-106.11" y1="1164.03" x2="1460.32" y2="-23.36" style="fill: none;stroke: #ea2c24;stroke-miterlimit: 10"/>
    <line x1="-57.88" y1="1166.65" x2="1460.32" y2="-23.36" style="fill: none;stroke: #ea2c24;stroke-miterlimit: 10"/>
    <line x1="-9.64" y1="1169.27" x2="1460.32" y2="-23.36" style="fill: none;stroke: #ea2c24;stroke-miterlimit: 10"/>
    <line x1="38.59" y1="1171.89" x2="1460.32" y2="-23.36" style="fill: none;stroke: #ea2c24;stroke-miterlimit: 10"/>
    <line x1="86.83" y1="1174.51" x2="1460.32" y2="-23.36" style="fill: none;stroke: #ea2c24;stroke-miterlimit: 10"/>
    <line x1="135.06" y1="1177.14" x2="1460.32" y2="-23.36" style="fill: none;stroke: #ea2c24;stroke-miterlimit: 10"/>
    <line x1="183.29" y1="1179.76" x2="1460.32" y2="-23.36" style="fill: none;stroke: #ea2c24;stroke-miterlimit: 10"/>
  </g>
  <g id="group1">
    <line x1="-606.44" y1="1149.98" x2="1460.32" y2="-23.36" style="fill: none;stroke: #f89a39;stroke-miterlimit: 10"/>
    <line x1="-436.97" y1="1156.83" x2="1460.32" y2="-23.36" style="fill: none;stroke: #f89a39;stroke-miterlimit: 10"/>
    <line x1="-267.49" y1="1163.68" x2="1460.32" y2="-23.36" style="fill: none;stroke: #f89a39;stroke-miterlimit: 10"/>
    <line x1="-98.01" y1="1170.53" x2="1460.32" y2="-23.36" style="fill: none;stroke: #f89a39;stroke-miterlimit: 10"/>
    <line x1="71.46" y1="1177.38" x2="1460.32" y2="-23.36" style="fill: none;stroke: #f89a39;stroke-miterlimit: 10"/>
    <line x1="240.94" y1="1184.24" x2="1460.32" y2="-23.36" style="fill: none;stroke: #f89a39;stroke-miterlimit: 10"/>
    <line x1="410.42" y1="1191.09" x2="1460.32" y2="-23.36" style="fill: none;stroke: #f89a39;stroke-miterlimit: 10"/>
    <line x1="579.9" y1="1197.94" x2="1460.32" y2="-23.36" style="fill: none;stroke: #f89a39;stroke-miterlimit: 10"/>
    <line x1="749.37" y1="1204.79" x2="1460.32" y2="-23.36" style="fill: none;stroke: #f89a39;stroke-miterlimit: 10"/>
    <line x1="918.85" y1="1211.64" x2="1460.32" y2="-23.36" style="fill: none;stroke: #f89a39;stroke-miterlimit: 10"/>
    <line x1="1088.33" y1="1218.49" x2="1460.32" y2="-23.36" style="fill: none;stroke: #f89a39;stroke-miterlimit: 10"/>
    <line x1="1257.8" y1="1225.34" x2="1460.32" y2="-23.36" style="fill: none;stroke: #f89a39;stroke-miterlimit: 10"/>
  </g>
  <g id="group7">
    <line x1="-725.02" y1="1038.46" x2="1460.32" y2="-23.36" style="fill: none;stroke: #e52625;stroke-miterlimit: 10"/>
    <line x1="-525.23" y1="1044.64" x2="1460.32" y2="-23.36" style="fill: none;stroke: #e52625;stroke-miterlimit: 10"/>
    <line x1="-325.44" y1="1050.82" x2="1460.32" y2="-23.36" style="fill: none;stroke: #e52625;stroke-miterlimit: 10"/>
    <line x1="-125.66" y1="1057" x2="1460.32" y2="-23.36" style="fill: none;stroke: #e52625;stroke-miterlimit: 10"/>
    <line x1="74.13" y1="1063.18" x2="1460.32" y2="-23.36" style="fill: none;stroke: #e52625;stroke-miterlimit: 10"/>
    <line x1="273.92" y1="1069.36" x2="1460.32" y2="-23.36" style="fill: none;stroke: #e52625;stroke-miterlimit: 10"/>
    <line x1="473.7" y1="1075.54" x2="1460.32" y2="-23.36" style="fill: none;stroke: #e52625;stroke-miterlimit: 10"/>
    <line x1="673.49" y1="1081.72" x2="1460.32" y2="-23.36" style="fill: none;stroke: #e52625;stroke-miterlimit: 10"/>
  </g>
  <g id="group8">
    <line x1="-1433.29" y1="1052.71" x2="1460.32" y2="-23.36" style="fill: none;stroke: #21b24b;stroke-miterlimit: 10"/>
    <line x1="-1147.47" y1="1054.48" x2="1460.32" y2="-23.36" style="fill: none;stroke: #21b24b;stroke-miterlimit: 10"/>
    <line x1="-861.66" y1="1056.25" x2="1460.32" y2="-23.36" style="fill: none;stroke: #21b24b;stroke-miterlimit: 10"/>
    <line x1="-575.84" y1="1058.02" x2="1460.32" y2="-23.36" style="fill: none;stroke: #21b24b;stroke-miterlimit: 10"/>
    <line x1="-290.02" y1="1059.79" x2="1460.32" y2="-23.36" style="fill: none;stroke: #21b24b;stroke-miterlimit: 10"/>
    <line x1="-4.2" y1="1061.56" x2="1460.32" y2="-23.36" style="fill: none;stroke: #21b24b;stroke-miterlimit: 10"/>
  </g>
  <g id="group12">
    <line x1="89" y1="1025.9" x2="1460.32" y2="-23.36" style="fill: none;stroke: #21b24b;stroke-miterlimit: 10"/>
    <line x1="132.32" y1="1025.8" x2="1460.32" y2="-23.36" style="fill: none;stroke: #21b24b;stroke-miterlimit: 10"/>
    <line x1="175.64" y1="1025.69" x2="1460.32" y2="-23.36" style="fill: none;stroke: #21b24b;stroke-miterlimit: 10"/>
    <line x1="218.97" y1="1025.58" x2="1460.32" y2="-23.36" style="fill: none;stroke: #21b24b;stroke-miterlimit: 10"/>
    <line x1="262.29" y1="1025.48" x2="1460.32" y2="-23.36" style="fill: none;stroke: #21b24b;stroke-miterlimit: 10"/>
    <line x1="305.62" y1="1025.37" x2="1460.32" y2="-23.36" style="fill: none;stroke: #21b24b;stroke-miterlimit: 10"/>
    <line x1="348.94" y1="1025.26" x2="1460.32" y2="-23.36" style="fill: none;stroke: #21b24b;stroke-miterlimit: 10"/>
    <line x1="392.27" y1="1025.15" x2="1460.32" y2="-23.36" style="fill: none;stroke: #21b24b;stroke-miterlimit: 10"/>
    <line x1="435.59" y1="1025.05" x2="1460.32" y2="-23.36" style="fill: none;stroke: #21b24b;stroke-miterlimit: 10"/>
    <line x1="478.92" y1="1024.94" x2="1460.32" y2="-23.36" style="fill: none;stroke: #21b24b;stroke-miterlimit: 10"/>
    <line x1="522.24" y1="1024.83" x2="1460.32" y2="-23.36" style="fill: none;stroke: #21b24b;stroke-miterlimit: 10"/>
    <line x1="565.57" y1="1024.72" x2="1460.32" y2="-23.36" style="fill: none;stroke: #21b24b;stroke-miterlimit: 10"/>
    <line x1="608.89" y1="1024.62" x2="1460.32" y2="-23.36" style="fill: none;stroke: #21b24b;stroke-miterlimit: 10"/>
    <line x1="652.21" y1="1024.51" x2="1460.32" y2="-23.36" style="fill: none;stroke: #21b24b;stroke-miterlimit: 10"/>
    <line x1="695.54" y1="1024.4" x2="1460.32" y2="-23.36" style="fill: none;stroke: #21b24b;stroke-miterlimit: 10"/>
    <line x1="738.86" y1="1024.3" x2="1460.32" y2="-23.36" style="fill: none;stroke: #21b24b;stroke-miterlimit: 10"/>
    <line x1="782.19" y1="1024.19" x2="1460.32" y2="-23.36" style="fill: none;stroke: #21b24b;stroke-miterlimit: 10"/>
    <line x1="825.51" y1="1024.08" x2="1460.32" y2="-23.36" style="fill: none;stroke: #21b24b;stroke-miterlimit: 10"/>
    <line x1="868.84" y1="1023.97" x2="1460.32" y2="-23.36" style="fill: none;stroke: #21b24b;stroke-miterlimit: 10"/>
    <line x1="912.16" y1="1023.87" x2="1460.32" y2="-23.36" style="fill: none;stroke: #21b24b;stroke-miterlimit: 10"/>
    <line x1="955.49" y1="1023.76" x2="1460.32" y2="-23.36" style="fill: none;stroke: #21b24b;stroke-miterlimit: 10"/>
    <line x1="998.81" y1="1023.65" x2="1460.32" y2="-23.36" style="fill: none;stroke: #21b24b;stroke-miterlimit: 10"/>
  </g>
  <g id="group13">
    <line x1="-892.94" y1="297.76" x2="1460.32" y2="-23.36" style="fill: none;stroke: #354fa2;stroke-miterlimit: 10"/>
    <line x1="-892.41" y1="353.36" x2="1460.32" y2="-23.36" style="fill: none;stroke: #354fa2;stroke-miterlimit: 10"/>
    <line x1="-891.87" y1="408.96" x2="1460.32" y2="-23.36" style="fill: none;stroke: #354fa2;stroke-miterlimit: 10"/>
    <line x1="-891.34" y1="464.57" x2="1460.32" y2="-23.36" style="fill: none;stroke: #354fa2;stroke-miterlimit: 10"/>
    <line x1="-890.81" y1="520.17" x2="1460.32" y2="-23.36" style="fill: none;stroke: #354fa2;stroke-miterlimit: 10"/>
    <line x1="-890.28" y1="575.78" x2="1460.32" y2="-23.36" style="fill: none;stroke: #354fa2;stroke-miterlimit: 10"/>
    <line x1="-889.75" y1="631.38" x2="1460.32" y2="-23.36" style="fill: none;stroke: #354fa2;stroke-miterlimit: 10"/>
    <line x1="-889.21" y1="686.98" x2="1460.32" y2="-23.36" style="fill: none;stroke: #354fa2;stroke-miterlimit: 10"/>
    <line x1="-888.68" y1="742.59" x2="1460.32" y2="-23.36" style="fill: none;stroke: #354fa2;stroke-miterlimit: 10"/>
    <line x1="-888.15" y1="798.19" x2="1460.32" y2="-23.36" style="fill: none;stroke: #354fa2;stroke-miterlimit: 10"/>
    <line x1="-887.62" y1="853.8" x2="1460.32" y2="-23.36" style="fill: none;stroke: #354fa2;stroke-miterlimit: 10"/>
    <line x1="-887.09" y1="909.4" x2="1460.32" y2="-23.36" style="fill: none;stroke: #354fa2;stroke-miterlimit: 10"/>
    <line x1="-886.55" y1="965" x2="1460.32" y2="-23.36" style="fill: none;stroke: #354fa2;stroke-miterlimit: 10"/>
    <line x1="-886.02" y1="1020.61" x2="1460.32" y2="-23.36" style="fill: none;stroke: #354fa2;stroke-miterlimit: 10"/>
  </g>
  <g id="group14">
    <line x1="-495.2" y1="1041.36" x2="1460.32" y2="-23.36" style="fill: none;stroke: #d2de26;stroke-miterlimit: 10"/>
    <line x1="-461.95" y1="1042.14" x2="1460.32" y2="-23.36" style="fill: none;stroke: #d2de26;stroke-miterlimit: 10"/>
    <line x1="-428.7" y1="1042.92" x2="1460.32" y2="-23.36" style="fill: none;stroke: #d2de26;stroke-miterlimit: 10"/>
    <line x1="-395.46" y1="1043.7" x2="1460.32" y2="-23.36" style="fill: none;stroke: #d2de26;stroke-miterlimit: 10"/>
    <line x1="-362.21" y1="1044.48" x2="1460.32" y2="-23.36" style="fill: none;stroke: #d2de26;stroke-miterlimit: 10"/>
    <line x1="-328.96" y1="1045.26" x2="1460.32" y2="-23.36" style="fill: none;stroke: #d2de26;stroke-miterlimit: 10"/>
    <line x1="-295.71" y1="1046.05" x2="1460.32" y2="-23.36" style="fill: none;stroke: #d2de26;stroke-miterlimit: 10"/>
    <line x1="-262.47" y1="1046.83" x2="1460.32" y2="-23.36" style="fill: none;stroke: #d2de26;stroke-miterlimit: 10"/>
    <line x1="-229.22" y1="1047.61" x2="1460.32" y2="-23.36" style="fill: none;stroke: #d2de26;stroke-miterlimit: 10"/>
    <line x1="-195.97" y1="1048.39" x2="1460.32" y2="-23.36" style="fill: none;stroke: #d2de26;stroke-miterlimit: 10"/>
    <line x1="-162.72" y1="1049.17" x2="1460.32" y2="-23.36" style="fill: none;stroke: #d2de26;stroke-miterlimit: 10"/>
    <line x1="-129.48" y1="1049.95" x2="1460.32" y2="-23.36" style="fill: none;stroke: #d2de26;stroke-miterlimit: 10"/>
    <line x1="-96.23" y1="1050.73" x2="1460.32" y2="-23.36" style="fill: none;stroke: #d2de26;stroke-miterlimit: 10"/>
    <line x1="-62.98" y1="1051.51" x2="1460.32" y2="-23.36" style="fill: none;stroke: #d2de26;stroke-miterlimit: 10"/>
    <line x1="-29.73" y1="1052.29" x2="1460.32" y2="-23.36" style="fill: none;stroke: #d2de26;stroke-miterlimit: 10"/>
    <line x1="3.51" y1="1053.07" x2="1460.32" y2="-23.36" style="fill: none;stroke: #d2de26;stroke-miterlimit: 10"/>
    <line x1="36.76" y1="1053.86" x2="1460.32" y2="-23.36" style="fill: none;stroke: #d2de26;stroke-miterlimit: 10"/>
    <line x1="70.01" y1="1054.64" x2="1460.32" y2="-23.36" style="fill: none;stroke: #d2de26;stroke-miterlimit: 10"/>
    <line x1="103.25" y1="1055.42" x2="1460.32" y2="-23.36" style="fill: none;stroke: #d2de26;stroke-miterlimit: 10"/>
    <line x1="136.5" y1="1056.2" x2="1460.32" y2="-23.36" style="fill: none;stroke: #d2de26;stroke-miterlimit: 10"/>
    <line x1="169.75" y1="1056.98" x2="1460.32" y2="-23.36" style="fill: none;stroke: #d2de26;stroke-miterlimit: 10"/>
    <line x1="203" y1="1057.76" x2="1460.32" y2="-23.36" style="fill: none;stroke: #d2de26;stroke-miterlimit: 10"/>
    <line x1="236.24" y1="1058.54" x2="1460.32" y2="-23.36" style="fill: none;stroke: #d2de26;stroke-miterlimit: 10"/>
    <line x1="269.49" y1="1059.32" x2="1460.32" y2="-23.36" style="fill: none;stroke: #d2de26;stroke-miterlimit: 10"/>
    <line x1="302.74" y1="1060.1" x2="1460.32" y2="-23.36" style="fill: none;stroke: #d2de26;stroke-miterlimit: 10"/>
    <line x1="335.99" y1="1060.88" x2="1460.32" y2="-23.36" style="fill: none;stroke: #d2de26;stroke-miterlimit: 10"/>
    <line x1="369.23" y1="1061.67" x2="1460.32" y2="-23.36" style="fill: none;stroke: #d2de26;stroke-miterlimit: 10"/>
    <line x1="402.48" y1="1062.45" x2="1460.32" y2="-23.36" style="fill: none;stroke: #d2de26;stroke-miterlimit: 10"/>
    <line x1="435.73" y1="1063.23" x2="1460.32" y2="-23.36" style="fill: none;stroke: #d2de26;stroke-miterlimit: 10"/>
    <line x1="468.98" y1="1064.01" x2="1460.32" y2="-23.36" style="fill: none;stroke: #d2de26;stroke-miterlimit: 10"/>
    <line x1="502.22" y1="1064.79" x2="1460.32" y2="-23.36" style="fill: none;stroke: #d2de26;stroke-miterlimit: 10"/>
    <line x1="535.47" y1="1065.57" x2="1460.32" y2="-23.36" style="fill: none;stroke: #d2de26;stroke-miterlimit: 10"/>
  </g>
  <g id="group15-2" data-name="group15">
    <line x1="70.01" y1="1054.64" x2="1460.32" y2="-23.36" style="fill: none;stroke: #b83a26;stroke-miterlimit: 10"/>
    <line x1="130.37" y1="1053.57" x2="1460.32" y2="-23.36" style="fill: none;stroke: #b83a26;stroke-miterlimit: 10"/>
    <line x1="190.74" y1="1052.51" x2="1460.32" y2="-23.36" style="fill: none;stroke: #b83a26;stroke-miterlimit: 10"/>
    <line x1="251.1" y1="1051.44" x2="1460.32" y2="-23.36" style="fill: none;stroke: #b83a26;stroke-miterlimit: 10"/>
    <line x1="311.47" y1="1050.37" x2="1460.32" y2="-23.36" style="fill: none;stroke: #b83a26;stroke-miterlimit: 10"/>
    <line x1="371.83" y1="1049.31" x2="1460.32" y2="-23.36" style="fill: none;stroke: #b83a26;stroke-miterlimit: 10"/>
    <line x1="432.2" y1="1048.24" x2="1460.32" y2="-23.36" style="fill: none;stroke: #b83a26;stroke-miterlimit: 10"/>
    <line x1="492.56" y1="1047.18" x2="1460.32" y2="-23.36" style="fill: none;stroke: #b83a26;stroke-miterlimit: 10"/>
    <line x1="552.93" y1="1046.11" x2="1460.32" y2="-23.36" style="fill: none;stroke: #b83a26;stroke-miterlimit: 10"/>
    <line x1="613.29" y1="1045.05" x2="1460.32" y2="-23.36" style="fill: none;stroke: #b83a26;stroke-miterlimit: 10"/>
    <line x1="673.66" y1="1043.98" x2="1460.32" y2="-23.36" style="fill: none;stroke: #b83a26;stroke-miterlimit: 10"/>
    <line x1="734.02" y1="1042.92" x2="1460.32" y2="-23.36" style="fill: none;stroke: #b83a26;stroke-miterlimit: 10"/>
    <line x1="794.39" y1="1041.85" x2="1460.32" y2="-23.36" style="fill: none;stroke: #b83a26;stroke-miterlimit: 10"/>
    <line x1="854.76" y1="1040.79" x2="1460.32" y2="-23.36" style="fill: none;stroke: #b83a26;stroke-miterlimit: 10"/>
    <line x1="915.12" y1="1039.72" x2="1460.32" y2="-23.36" style="fill: none;stroke: #b83a26;stroke-miterlimit: 10"/>
    <line x1="975.49" y1="1038.66" x2="1460.32" y2="-23.36" style="fill: none;stroke: #b83a26;stroke-miterlimit: 10"/>
    <line x1="1035.85" y1="1037.59" x2="1460.32" y2="-23.36" style="fill: none;stroke: #b83a26;stroke-miterlimit: 10"/>
    <line x1="1096.22" y1="1036.52" x2="1460.32" y2="-23.36" style="fill: none;stroke: #b83a26;stroke-miterlimit: 10"/>
  </g>
</svg>
